<?xml version="1.0" encoding="UTF-8"?>
<svg width="557px" height="397px" viewBox="0 0 557 397" version="1.1" xmlns="http://www.w3.org/2000/svg" xmlns:xlink="http://www.w3.org/1999/xlink">
    <!-- Generator: Sketch 61.2 (89653) - https://sketch.com -->
    <title>Group</title>
    <desc>Created with Sketch.</desc>
    <defs>
        <rect id="path-1" x="0" y="0" width="497" height="337" rx="4"></rect>
        <filter x="-10.1%" y="-11.9%" width="120.1%" height="129.7%" filterUnits="objectBoundingBox" id="filter-2">
            <feOffset dx="0" dy="10" in="SourceAlpha" result="shadowOffsetOuter1"></feOffset>
            <feGaussianBlur stdDeviation="15" in="shadowOffsetOuter1" result="shadowBlurOuter1"></feGaussianBlur>
            <feColorMatrix values="0 0 0 0 0   0 0 0 0 0   0 0 0 0 0  0 0 0 0.15 0" type="matrix" in="shadowBlurOuter1"></feColorMatrix>
        </filter>
    </defs>
    <g id="New-Branding-Final" stroke="none" stroke-width="1" fill="none" fill-rule="evenodd">
        <g id="Forest2020_Smart-Concept" transform="translate(-705.000000, -1267.000000)">
            <g id="Group-7" transform="translate(202.000000, 1182.000000)">
                <g id="Group" transform="translate(527.000000, 105.000000)">
                    <g id="Group-5-Copy" transform="translate(6.000000, 0.000000)">
                        <g id="Rectangle-3-Copy">
                            <use fill="black" fill-opacity="1" filter="url(#filter-2)" xlink:href="#path-1"></use>
                            <use fill="#F2F6FA" fill-rule="evenodd" xlink:href="#path-1"></use>
                        </g>
                        <path d="M22,45 L84,45 C86.209139,45 88,46.790861 88,49 L88,51 C88,53.209139 86.209139,55 84,55 L22,55 C19.790861,55 18,53.209139 18,51 L18,49 C18,46.790861 19.790861,45 22,45 Z" id="Rectangle-2-Copy-3" fill-opacity="0.599999964" fill="#B1C2D6"></path>
                        <path d="M22,279 L84,279 C86.209139,279 88,280.790861 88,283 L88,285 C88,287.209139 86.209139,289 84,289 L22,289 C19.790861,289 18,287.209139 18,285 L18,283 C18,280.790861 19.790861,279 22,279 Z" id="Rectangle-2-Copy-5" fill-opacity="0.599999964" fill="#B1C2D6"></path>
                        <rect id="Rectangle-2-Copy-4" fill-opacity="0.599999964" fill="#B1C2D6" x="108" y="45" width="140" height="10" rx="4"></rect>
                        <rect id="Rectangle-2-Copy-6" fill-opacity="0.599999964" fill="#B1C2D6" x="108" y="279" width="140" height="10" rx="4"></rect>
                        <rect id="Rectangle-2-Copy-26" fill-opacity="0.599999964" fill="#B1C2D6" x="268" y="45" width="140" height="10" rx="4"></rect>
                        <rect id="Rectangle-2-Copy-34" fill-opacity="0.599999964" fill="#B1C2D6" x="268" y="279" width="140" height="10" rx="4"></rect>
                        <path d="M22,72 L84,72 C86.209139,72 88,73.790861 88,76 L88,78 C88,80.209139 86.209139,82 84,82 L22,82 C19.790861,82 18,80.209139 18,78 L18,76 C18,73.790861 19.790861,72 22,72 Z" id="Rectangle-2-Copy-9" fill="#B1C2D6"></path>
                        <rect id="Rectangle-2-Copy-16" fill="#B1C2D6" x="108" y="72" width="140" height="10" rx="4"></rect>
                        <rect id="Rectangle-2-Copy-27" fill="#B1C2D6" x="268" y="72" width="140" height="10" rx="4"></rect>
                        <path d="M22,192 L84,192 C86.209139,192 88,193.790861 88,196 L88,198 C88,200.209139 86.209139,202 84,202 L22,202 C19.790861,202 18,200.209139 18,198 L18,196 C18,193.790861 19.790861,192 22,192 Z" id="Rectangle-2-Copy-17" fill="#B1C2D6"></path>
                        <rect id="Rectangle-2-Copy-20" fill="#B1C2D6" x="108" y="192" width="140" height="10" rx="4"></rect>
                        <rect id="Rectangle-2-Copy-28" fill="#B1C2D6" x="268" y="192" width="140" height="10" rx="4"></rect>
                        <path d="M22,132 L84,132 C86.209139,132 88,133.790861 88,136 L88,138 C88,140.209139 86.209139,142 84,142 L22,142 C19.790861,142 18,140.209139 18,138 L18,136 C18,133.790861 19.790861,132 22,132 Z" id="Rectangle-2-Copy-10" fill="#B1C2D6"></path>
                        <rect id="Rectangle-2-Copy-21" fill="#B1C2D6" x="108" y="132" width="140" height="10" rx="4"></rect>
                        <rect id="Rectangle-2-Copy-29" fill="#B1C2D6" x="268" y="132" width="140" height="10" rx="4"></rect>
                        <path d="M22,252 L84,252 C86.209139,252 88,253.790861 88,256 L88,258 C88,260.209139 86.209139,262 84,262 L22,262 C19.790861,262 18,260.209139 18,258 L18,256 C18,253.790861 19.790861,252 22,252 Z" id="Rectangle-2-Copy-18" fill="#B1C2D6"></path>
                        <rect id="Rectangle-2-Copy-22" fill="#B1C2D6" x="108" y="252" width="140" height="10" rx="4"></rect>
                        <rect id="Rectangle-2-Copy-30" fill="#B1C2D6" x="268" y="252" width="140" height="10" rx="4"></rect>
                        <path d="M22,102 L84,102 C86.209139,102 88,103.790861 88,106 L88,108 C88,110.209139 86.209139,112 84,112 L22,112 C19.790861,112 18,110.209139 18,108 L18,106 C18,103.790861 19.790861,102 22,102 Z" id="Rectangle-2-Copy-12" fill="#B1C2D6"></path>
                        <rect id="Rectangle-2-Copy-23" fill="#B1C2D6" x="108" y="102" width="140" height="10" rx="4"></rect>
                        <rect id="Rectangle-2-Copy-31" fill="#B1C2D6" x="268" y="102" width="140" height="10" rx="4"></rect>
                        <path d="M22,222 L84,222 C86.209139,222 88,223.790861 88,226 L88,228 C88,230.209139 86.209139,232 84,232 L22,232 C19.790861,232 18,230.209139 18,228 L18,226 C18,223.790861 19.790861,222 22,222 Z" id="Rectangle-2-Copy-19" fill="#B1C2D6"></path>
                        <rect id="Rectangle-2-Copy-24" fill="#B1C2D6" x="108" y="222" width="140" height="10" rx="4"></rect>
                        <rect id="Rectangle-2-Copy-32" fill="#B1C2D6" x="268" y="222" width="140" height="10" rx="4"></rect>
                        <path d="M22,162 L84,162 C86.209139,162 88,163.790861 88,166 L88,168 C88,170.209139 86.209139,172 84,172 L22,172 C19.790861,172 18,170.209139 18,168 L18,166 C18,163.790861 19.790861,162 22,162 Z" id="Rectangle-2-Copy-13" fill="#B1C2D6"></path>
                        <rect id="Rectangle-2-Copy-25" fill="#B1C2D6" x="108" y="162" width="140" height="10" rx="4"></rect>
                        <rect id="Rectangle-2-Copy-33" fill="#B1C2D6" x="268" y="162" width="140" height="10" rx="4"></rect>
                        <rect id="Rectangle-2-Copy-26" fill-opacity="0.599999964" fill="#B1C2D6" x="428" y="45" width="50" height="10" rx="4"></rect>
                        <rect id="Rectangle-2-Copy-35" fill-opacity="0.599999964" fill="#B1C2D6" x="428" y="279" width="50" height="10" rx="4"></rect>
                        <path d="M22,18 L84,18 C86.209139,18 88,19.790861 88,22 L88,24 C88,26.209139 86.209139,28 84,28 L22,28 C19.790861,28 18,26.209139 18,24 L18,22 C18,19.790861 19.790861,18 22,18 Z" id="Rectangle-2-Copy-3" fill-opacity="0.400000006" fill="#B1C2D6"></path>
                        <path d="M22,307 L84,307 C86.209139,307 88,308.790861 88,311 L88,313 C88,315.209139 86.209139,317 84,317 L22,317 C19.790861,317 18,315.209139 18,313 L18,311 C18,308.790861 19.790861,307 22,307 Z" id="Rectangle-2-Copy-7" fill-opacity="0.400000006" fill="#B1C2D6"></path>
                        <rect id="Rectangle-2-Copy-4" fill-opacity="0.400000006" fill="#B1C2D6" x="108" y="18" width="140" height="10" rx="4"></rect>
                        <rect id="Rectangle-2-Copy-8" fill-opacity="0.400000006" fill="#B1C2D6" x="108" y="307" width="140" height="10" rx="4"></rect>
                        <rect id="Rectangle-2-Copy-26" fill-opacity="0.400000006" fill="#B1C2D6" x="268" y="18" width="140" height="10" rx="4"></rect>
                        <rect id="Rectangle-2-Copy-36" fill-opacity="0.400000006" fill="#B1C2D6" x="268" y="307" width="140" height="10" rx="4"></rect>
                        <rect id="Rectangle-2-Copy-26" fill-opacity="0.400000006" fill="#B1C2D6" x="428" y="18" width="50" height="10" rx="4"></rect>
                        <rect id="Rectangle-2-Copy-37" fill-opacity="0.400000006" fill="#B1C2D6" x="428" y="307" width="50" height="10" rx="4"></rect>
                        <rect id="Rectangle-2-Copy-27" fill="#B1C2D6" x="428" y="72" width="50" height="10" rx="4"></rect>
                        <rect id="Rectangle-2-Copy-28" fill="#B1C2D6" x="428" y="192" width="50" height="10" rx="4"></rect>
                        <rect id="Rectangle-2-Copy-29" fill="#B1C2D6" x="428" y="132" width="50" height="10" rx="4"></rect>
                        <rect id="Rectangle-2-Copy-30" fill="#B1C2D6" x="428" y="252" width="50" height="10" rx="4"></rect>
                        <rect id="Rectangle-2-Copy-31" fill="#B1C2D6" x="428" y="102" width="50" height="10" rx="4"></rect>
                        <rect id="Rectangle-2-Copy-32" fill="#B1C2D6" x="428" y="222" width="50" height="10" rx="4"></rect>
                        <rect id="Rectangle-2-Copy-33" fill="#B1C2D6" x="428" y="162" width="50" height="10" rx="4"></rect>
                    </g>
                    <rect id="Rectangle-14" fill="#FFFFFF" x="0" y="117" width="510" height="36" rx="4"></rect>
                    <path d="M33.396,136.933 L29.652,136.933 L28.885,139 L27.039,139 L30.692,129.9 L32.356,129.9 L36.009,139 L34.163,139 L33.396,136.933 Z M32.85,135.425 L31.524,131.85 L30.198,135.425 L32.85,135.425 Z M41.339,139.195 C40.3856619,139.195 39.5363371,138.997835 38.791,138.6035 C38.0456629,138.209165 37.4650021,137.654504 37.049,136.9395 C36.6329979,136.224496 36.425,135.394671 36.425,134.45 C36.425,133.505329 36.6329979,132.675504 37.049,131.9605 C37.4650021,131.245496 38.0456629,130.690835 38.791,130.2965 C39.5363371,129.902165 40.3856619,129.705 41.339,129.705 C42.5523394,129.705 43.6356619,130.038663 44.589,130.706 L43.627,132.162 C42.9076631,131.659331 42.1406707,131.408 41.326,131.408 C40.7366637,131.408 40.2080023,131.533665 39.74,131.785 C39.2719977,132.036335 38.9058347,132.391664 38.6415,132.851 C38.3771653,133.310336 38.245,133.84333 38.245,134.45 C38.245,135.05667 38.3771653,135.589664 38.6415,136.049 C38.9058347,136.508336 39.2719977,136.863665 39.74,137.115 C40.2080023,137.366335 40.7366637,137.492 41.326,137.492 C42.1406707,137.492 42.9076631,137.240669 43.627,136.738 L44.589,138.194 C43.6356619,138.861337 42.5523394,139.195 41.339,139.195 Z M56.133,139 L54.378,139 L53,133.085 L52.974,133.085 L51.102,137.648 L49.893,137.648 L48.021,133.085 L47.995,133.085 L46.604,139 L44.862,139 L47.124,129.9 L48.424,129.9 L50.478,135.074 L50.504,135.074 L52.571,129.9 L53.871,129.9 L56.133,139 Z M62.49,137.44 L62.49,139 L57.03,139 L57.03,129.9 L62.425,129.9 L62.425,131.46 L58.694,131.46 L58.694,133.28 L62.1,133.28 L62.1,134.814 L58.694,134.814 L58.694,137.44 L62.49,137.44 Z M69.133,139 L67.456,139 L67.456,129.9 L69.133,129.9 L69.133,139 Z M74.255,132.799 C74.9483368,132.799 75.4986646,133.002665 75.906,133.41 C76.3133354,133.817335 76.517,134.445662 76.517,135.295 L76.517,139 L74.918,139 L74.918,135.672 C74.918,134.744662 74.5063375,134.281 73.683,134.281 C73.2496645,134.281 72.9073346,134.423999 72.656,134.71 C72.4046654,134.996001 72.279,135.446664 72.279,136.062 L72.279,139 L70.693,139 L70.693,132.994 L72.266,132.994 L72.266,133.904 L72.292,133.904 C72.500001,133.548665 72.7708317,133.275668 73.1045,133.085 C73.4381683,132.894332 73.8216645,132.799 74.255,132.799 Z M80.807,139.195 C80.1656635,139.195 79.5936692,139.062835 79.091,138.7985 C78.5883308,138.534165 78.1961681,138.159336 77.9145,137.674 C77.6328319,137.188664 77.492,136.62967 77.492,135.997 C77.492,135.36433 77.6328319,134.805336 77.9145,134.32 C78.1961681,133.834664 78.5883308,133.459835 79.091,133.1955 C79.5936692,132.931165 80.1656635,132.799 80.807,132.799 C81.5696705,132.799 82.2716635,132.998331 82.913,133.397 L82.224,134.71 C81.7819978,134.432665 81.3183358,134.294 80.833,134.294 C80.3389975,134.294 79.9316683,134.452165 79.611,134.7685 C79.2903317,135.084835 79.13,135.494331 79.13,135.997 C79.13,136.499669 79.2903317,136.909165 79.611,137.2255 C79.9316683,137.541835 80.3389975,137.7 80.833,137.7 C81.3183358,137.7 81.7819978,137.561335 82.224,137.284 L82.913,138.597 C82.2716635,138.995669 81.5696705,139.195 80.807,139.195 Z" id="ACME-Inc" fill="#647A93"></path>
                    <path d="M120.38,129.705 C121.186004,129.705 121.987663,129.908665 122.785,130.316 L122.174,131.603 C121.887999,131.438333 121.584668,131.308334 121.264,131.213 C120.943332,131.117666 120.635668,131.07 120.341,131.07 C119.647663,131.07 119.301,131.329997 119.301,131.85 C119.301,132.049334 119.357333,132.229166 119.47,132.3895 C119.582667,132.549834 119.764665,132.729666 120.016,132.929 L121.641,134.177 C122.126336,134.549669 122.481666,134.928831 122.707,135.3145 C122.932334,135.700169 123.045,136.144331 123.045,136.647 C123.045,137.461671 122.780669,138.089998 122.252,138.532 C121.723331,138.974002 121.017004,139.195 120.133,139.195 C119.586997,139.195 119.058336,139.117001 118.547,138.961 C118.035664,138.804999 117.585002,138.601335 117.195,138.35 L117.806,137.076 C118.664004,137.570002 119.443996,137.817 120.146,137.817 C120.614002,137.817 120.971499,137.715168 121.2185,137.5115 C121.465501,137.307832 121.589,137.045668 121.589,136.725 C121.589,136.482332 121.513167,136.257001 121.3615,136.049 C121.209833,135.840999 120.965002,135.602668 120.627,135.334 L119.08,134.112 C118.663998,133.791332 118.352001,133.455502 118.144,133.1045 C117.935999,132.753498 117.832,132.352669 117.832,131.902 C117.832,131.225997 118.057331,130.690835 118.508,130.2965 C118.958669,129.902165 119.582663,129.705 120.38,129.705 Z M126.815,139.195 C126.277664,139.195 125.788002,139.065001 125.346,138.805 C124.903998,138.544999 124.550835,138.174502 124.2865,137.6935 C124.022165,137.212498 123.89,136.647003 123.89,135.997 C123.89,135.346997 124.022165,134.781502 124.2865,134.3005 C124.550835,133.819498 124.903998,133.449001 125.346,133.189 C125.788002,132.928999 126.277664,132.799 126.815,132.799 C127.291669,132.799 127.698998,132.894332 128.037,133.085 C128.375002,133.275668 128.643666,133.539998 128.843,133.878 L128.869,133.878 L128.869,132.994 L130.143,132.994 L130.143,139 L128.869,139 L128.869,138.116 L128.843,138.116 C128.643666,138.454002 128.375002,138.718332 128.037,138.909 C127.698998,139.099668 127.291669,139.195 126.815,139.195 Z M127.088,137.947 C127.642669,137.947 128.088998,137.767168 128.427,137.4075 C128.765002,137.047832 128.934,136.57767 128.934,135.997 C128.934,135.41633 128.765002,134.946168 128.427,134.5865 C128.088998,134.226832 127.642669,134.047 127.088,134.047 C126.533331,134.047 126.087002,134.226832 125.749,134.5865 C125.410998,134.946168 125.242,135.41633 125.242,135.997 C125.242,136.57767 125.410998,137.047832 125.749,137.4075 C126.087002,137.767168 126.533331,137.947 127.088,137.947 Z M134.966,132.799 C135.659337,132.799 136.209665,133.000498 136.617,133.4035 C137.024335,133.806502 137.228,134.441329 137.228,135.308 L137.228,139 L135.954,139 L135.954,135.529 C135.954,134.558328 135.494671,134.073 134.576,134.073 C134.081998,134.073 133.692001,134.237665 133.406,134.567 C133.119999,134.896335 132.977,135.41633 132.977,136.127 L132.977,139 L131.703,139 L131.703,132.994 L132.977,132.994 L132.977,133.904 L133.003,133.904 C133.419002,133.16733 134.073329,132.799 134.966,132.799 Z M143.975,131.174 L143.975,133.735 L147.589,133.735 L147.589,135.009 L143.975,135.009 L143.975,139 L142.623,139 L142.623,129.9 L147.888,129.9 L147.888,131.174 L143.975,131.174 Z M152.438,134.307 L152.243,134.307 C151.61033,134.307 151.133668,134.469498 150.813,134.7945 C150.492332,135.119502 150.332,135.632996 150.332,136.335 L150.332,139 L149.058,139 L149.058,132.994 L150.332,132.994 L150.332,134.307 L150.358,134.307 C150.505334,133.847664 150.750165,133.483668 151.0925,133.215 C151.434835,132.946332 151.852998,132.812 152.347,132.812 L152.438,132.812 L152.438,134.307 Z M155.883,139.195 C155.345664,139.195 154.856002,139.065001 154.414,138.805 C153.971998,138.544999 153.618835,138.174502 153.3545,137.6935 C153.090165,137.212498 152.958,136.647003 152.958,135.997 C152.958,135.346997 153.090165,134.781502 153.3545,134.3005 C153.618835,133.819498 153.971998,133.449001 154.414,133.189 C154.856002,132.928999 155.345664,132.799 155.883,132.799 C156.359669,132.799 156.766998,132.894332 157.105,133.085 C157.443002,133.275668 157.711666,133.539998 157.911,133.878 L157.937,133.878 L157.937,132.994 L159.211,132.994 L159.211,139 L157.937,139 L157.937,138.116 L157.911,138.116 C157.711666,138.454002 157.443002,138.718332 157.105,138.909 C156.766998,139.099668 156.359669,139.195 155.883,139.195 Z M156.156,137.947 C156.710669,137.947 157.156998,137.767168 157.495,137.4075 C157.833002,137.047832 158.002,136.57767 158.002,135.997 C158.002,135.41633 157.833002,134.946168 157.495,134.5865 C157.156998,134.226832 156.710669,134.047 156.156,134.047 C155.601331,134.047 155.155002,134.226832 154.817,134.5865 C154.478998,134.946168 154.31,135.41633 154.31,135.997 C154.31,136.57767 154.478998,137.047832 154.817,137.4075 C155.155002,137.767168 155.601331,137.947 156.156,137.947 Z M164.034,132.799 C164.727337,132.799 165.277665,133.000498 165.685,133.4035 C166.092335,133.806502 166.296,134.441329 166.296,135.308 L166.296,139 L165.022,139 L165.022,135.529 C165.022,134.558328 164.562671,134.073 163.644,134.073 C163.149998,134.073 162.760001,134.237665 162.474,134.567 C162.187999,134.896335 162.045,135.41633 162.045,136.127 L162.045,139 L160.771,139 L160.771,132.994 L162.045,132.994 L162.045,133.904 L162.071,133.904 C162.487002,133.16733 163.141329,132.799 164.034,132.799 Z M170.703,139.195 C170.061663,139.195 169.491836,139.060668 168.9935,138.792 C168.495164,138.523332 168.105168,138.146336 167.8235,137.661 C167.541832,137.175664 167.401,136.621003 167.401,135.997 C167.401,135.372997 167.541832,134.818336 167.8235,134.333 C168.105168,133.847664 168.495164,133.470668 168.9935,133.202 C169.491836,132.933332 170.061663,132.799 170.703,132.799 C171.457004,132.799 172.141664,133.002665 172.757,133.41 L172.159,134.489 C171.673664,134.185665 171.175336,134.034 170.664,134.034 C170.091997,134.034 169.630502,134.218165 169.2795,134.5865 C168.928498,134.954835 168.753,135.424997 168.753,135.997 C168.753,136.569003 168.928498,137.039165 169.2795,137.4075 C169.630502,137.775835 170.091997,137.96 170.664,137.96 C171.175336,137.96 171.673664,137.808335 172.159,137.505 L172.757,138.584 C172.141664,138.991335 171.457004,139.195 170.703,139.195 Z M173.862,132.994 L175.136,132.994 L175.136,139 L173.862,139 L173.862,132.994 Z M174.499,129.848 C174.759001,129.848 174.979999,129.938999 175.162,130.121 C175.344001,130.303001 175.435,130.523999 175.435,130.784 C175.435,131.044001 175.344001,131.264999 175.162,131.447 C174.979999,131.629001 174.759001,131.72 174.499,131.72 C174.238999,131.72 174.018001,131.629001 173.836,131.447 C173.653999,131.264999 173.563,131.044001 173.563,130.784 C173.563,130.523999 173.653999,130.303001 173.836,130.121 C174.018001,129.938999 174.238999,129.848 174.499,129.848 Z M178.62,139.195 C178.195331,139.195 177.768502,139.138667 177.3395,139.026 C176.910498,138.913333 176.522668,138.757334 176.176,138.558 L176.748,137.427 C177.40667,137.808335 178.043664,137.999 178.659,137.999 C179.283003,137.999 179.595,137.812669 179.595,137.44 C179.595,137.309999 179.5495,137.195167 179.4585,137.0955 C179.3675,136.995833 179.200668,136.885334 178.958,136.764 L177.866,136.231 C177.025329,135.832331 176.605,135.256004 176.605,134.502 C176.605,133.955997 176.793498,133.535668 177.1705,133.241 C177.547502,132.946332 178.069663,132.799 178.737,132.799 C179.075002,132.799 179.423832,132.840166 179.7835,132.9225 C180.143168,133.004834 180.487665,133.119666 180.817,133.267 L180.297,134.372 C179.69033,134.111999 179.157336,133.982 178.698,133.982 C178.203998,133.982 177.957,134.133665 177.957,134.437 C177.957,134.584334 178.006833,134.709999 178.1065,134.814 C178.206167,134.918001 178.385999,135.030666 178.646,135.152 L179.764,135.685 C180.162669,135.867001 180.461666,136.094499 180.661,136.3675 C180.860334,136.640501 180.96,136.976331 180.96,137.375 C180.96,137.973003 180.749835,138.425832 180.3295,138.7335 C179.909165,139.041168 179.339337,139.195 178.62,139.195 Z M184.912,139.195 C184.270663,139.195 183.700836,139.060668 183.2025,138.792 C182.704164,138.523332 182.314168,138.146336 182.0325,137.661 C181.750832,137.175664 181.61,136.621003 181.61,135.997 C181.61,135.372997 181.750832,134.818336 182.0325,134.333 C182.314168,133.847664 182.704164,133.470668 183.2025,133.202 C183.700836,132.933332 184.270663,132.799 184.912,132.799 C185.666004,132.799 186.350664,133.002665 186.966,133.41 L186.368,134.489 C185.882664,134.185665 185.384336,134.034 184.873,134.034 C184.300997,134.034 183.839502,134.218165 183.4885,134.5865 C183.137498,134.954835 182.962,135.424997 182.962,135.997 C182.962,136.569003 183.137498,137.039165 183.4885,137.4075 C183.839502,137.775835 184.300997,137.96 184.873,137.96 C185.384336,137.96 185.882664,137.808335 186.368,137.505 L186.966,138.584 C186.350664,138.991335 185.666004,139.195 184.912,139.195 Z M190.905,132.799 C191.529003,132.799 192.090164,132.937665 192.5885,133.215 C193.086836,133.492335 193.478999,133.873664 193.765,134.359 C194.051001,134.844336 194.194,135.39033 194.194,135.997 C194.194,136.60367 194.051001,137.149664 193.765,137.635 C193.478999,138.120336 193.086836,138.501665 192.5885,138.779 C192.090164,139.056335 191.529003,139.195 190.905,139.195 C190.280997,139.195 189.719836,139.056335 189.2215,138.779 C188.723164,138.501665 188.331001,138.120336 188.045,137.635 C187.758999,137.149664 187.616,136.60367 187.616,135.997 C187.616,135.39033 187.758999,134.844336 188.045,134.359 C188.331001,133.873664 188.723164,133.492335 189.2215,133.215 C189.719836,132.937665 190.280997,132.799 190.905,132.799 Z M190.905,134.047 C190.332997,134.047 189.867168,134.224665 189.5075,134.58 C189.147832,134.935335 188.968,135.407664 188.968,135.997 C188.968,136.586336 189.147832,137.058665 189.5075,137.414 C189.867168,137.769335 190.332997,137.947 190.905,137.947 C191.477003,137.947 191.942832,137.769335 192.3025,137.414 C192.662168,137.058665 192.842,136.586336 192.842,135.997 C192.842,135.407664 192.662168,134.935335 192.3025,134.58 C191.942832,134.224665 191.477003,134.047 190.905,134.047 Z M204.035,134.164 C204.598336,134.250667 205.044665,134.493331 205.374,134.892 C205.703335,135.290669 205.868,135.797664 205.868,136.413 C205.868,136.959003 205.744501,137.426998 205.4975,137.817 C205.250499,138.207002 204.914669,138.501666 204.49,138.701 C204.065331,138.900334 203.593003,139 203.073,139 L199.264,139 L199.264,129.9 L202.722,129.9 C203.519337,129.9 204.160664,130.107998 204.646,130.524 C205.131336,130.940002 205.374,131.50333 205.374,132.214 C205.374,132.673336 205.257001,133.076332 205.023,133.423 C204.788999,133.769668 204.459669,134.007999 204.035,134.138 L204.035,134.164 Z M200.616,131.174 L200.616,133.696 L202.319,133.696 C202.847669,133.696 203.244165,133.587668 203.5085,133.371 C203.772835,133.154332 203.905,132.842335 203.905,132.435 C203.905,132.018998 203.772835,131.704834 203.5085,131.4925 C203.244165,131.280166 202.886669,131.174 202.436,131.174 L200.616,131.174 Z M202.8,137.726 C203.302669,137.726 203.694832,137.598168 203.9765,137.3425 C204.258168,137.086832 204.399,136.746669 204.399,136.322 C204.399,135.897331 204.253835,135.557168 203.9635,135.3015 C203.673165,135.045832 203.242003,134.918 202.67,134.918 L200.616,134.918 L200.616,137.726 L202.8,137.726 Z M209.703,139.195 C209.165664,139.195 208.676002,139.065001 208.234,138.805 C207.791998,138.544999 207.438835,138.174502 207.1745,137.6935 C206.910165,137.212498 206.778,136.647003 206.778,135.997 C206.778,135.346997 206.910165,134.781502 207.1745,134.3005 C207.438835,133.819498 207.791998,133.449001 208.234,133.189 C208.676002,132.928999 209.165664,132.799 209.703,132.799 C210.179669,132.799 210.586998,132.894332 210.925,133.085 C211.263002,133.275668 211.531666,133.539998 211.731,133.878 L211.757,133.878 L211.757,132.994 L213.031,132.994 L213.031,139 L211.757,139 L211.757,138.116 L211.731,138.116 C211.531666,138.454002 211.263002,138.718332 210.925,138.909 C210.586998,139.099668 210.179669,139.195 209.703,139.195 Z M209.976,137.947 C210.530669,137.947 210.976998,137.767168 211.315,137.4075 C211.653002,137.047832 211.822,136.57767 211.822,135.997 C211.822,135.41633 211.653002,134.946168 211.315,134.5865 C210.976998,134.226832 210.530669,134.047 209.976,134.047 C209.421331,134.047 208.975002,134.226832 208.637,134.5865 C208.298998,134.946168 208.13,135.41633 208.13,135.997 C208.13,136.57767 208.298998,137.047832 208.637,137.4075 C208.975002,137.767168 209.421331,137.947 209.976,137.947 Z M220.051,132.994 L216.307,141.6 L214.955,141.6 L216.398,138.454 L213.876,132.994 L215.397,132.994 L217.048,136.933 L218.647,132.994 L220.051,132.994 Z" id="San-Francisco-Bay" fill="#647A93"></path>
                    <path d="M282.017,129.9 C282.606336,129.9 283.113331,130.019165 283.538,130.2575 C283.962669,130.495835 284.285499,130.822998 284.5065,131.239 C284.727501,131.655002 284.838,132.127331 284.838,132.656 C284.838,133.184669 284.727501,133.656998 284.5065,134.073 C284.285499,134.489002 283.962669,134.816165 283.538,135.0545 C283.113331,135.292835 282.606336,135.412 282.017,135.412 L280.262,135.412 L280.262,139 L278.91,139 L278.91,129.9 L282.017,129.9 Z M281.835,134.138 C282.311669,134.138 282.688665,134.010168 282.966,133.7545 C283.243335,133.498832 283.382,133.132669 283.382,132.656 C283.382,132.179331 283.243335,131.813168 282.966,131.5575 C282.688665,131.301832 282.311669,131.174 281.835,131.174 L280.262,131.174 L280.262,134.138 L281.835,134.138 Z M289.193,134.307 L288.998,134.307 C288.36533,134.307 287.888668,134.469498 287.568,134.7945 C287.247332,135.119502 287.087,135.632996 287.087,136.335 L287.087,139 L285.813,139 L285.813,132.994 L287.087,132.994 L287.087,134.307 L287.113,134.307 C287.260334,133.847664 287.505165,133.483668 287.8475,133.215 C288.189835,132.946332 288.607998,132.812 289.102,132.812 L289.193,132.812 L289.193,134.307 Z M292.781,132.799 C293.682338,132.799 294.386497,133.087164 294.8935,133.6635 C295.400503,134.239836 295.654,135.017662 295.654,135.997 L295.654,136.205 L291,136.205 C291.026,136.733669 291.205832,137.160498 291.5395,137.4855 C291.873168,137.810502 292.299997,137.973 292.82,137.973 C293.253335,137.973 293.615165,137.871168 293.9055,137.6675 C294.195835,137.463832 294.449332,137.214668 294.666,136.92 L295.563,137.765 C294.869663,138.718338 293.964006,139.195 292.846,139.195 C292.21333,139.195 291.660836,139.062835 291.1885,138.7985 C290.716164,138.534165 290.352168,138.161502 290.0965,137.6805 C289.840832,137.199498 289.713,136.64267 289.713,136.01 C289.713,135.40333 289.836499,134.855169 290.0835,134.3655 C290.330501,133.875831 290.685831,133.492335 291.1495,133.215 C291.613169,132.937665 292.156997,132.799 292.781,132.799 Z M292.703,133.969 C292.260998,133.969 291.897001,134.081666 291.611,134.307 C291.324999,134.532334 291.143,134.857331 291.065,135.282 L294.276,135.282 C294.25,134.865998 294.096168,134.543168 293.8145,134.3135 C293.532832,134.083832 293.162336,133.969 292.703,133.969 Z M296.824,132.994 L298.098,132.994 L298.098,133.93 L298.124,133.93 C298.288667,133.539998 298.529165,133.254001 298.8455,133.072 C299.161835,132.889999 299.523665,132.799 299.931,132.799 C300.806338,132.799 301.412998,133.206329 301.751,134.021 L301.777,134.021 C301.950334,133.613665 302.205998,133.308168 302.544,133.1045 C302.882002,132.900832 303.254665,132.799 303.662,132.799 C304.26867,132.799 304.762665,133.002665 305.144,133.41 C305.525335,133.817335 305.716,134.441329 305.716,135.282 L305.716,139 L304.442,139 L304.442,135.347 C304.442,134.930998 304.340168,134.614668 304.1365,134.398 C303.932832,134.181332 303.640335,134.073 303.259,134.073 C302.842998,134.073 302.513668,134.218165 302.271,134.5085 C302.028332,134.798835 301.907,135.255997 301.907,135.88 L301.907,139 L300.633,139 L300.633,135.347 C300.633,134.930998 300.531168,134.614668 300.3275,134.398 C300.123832,134.181332 299.827002,134.073 299.437,134.073 C299.029665,134.073 298.704668,134.220332 298.462,134.515 C298.219332,134.809668 298.098,135.268997 298.098,135.893 L298.098,139 L296.824,139 L296.824,132.994 Z M307.276,132.994 L308.55,132.994 L308.55,139 L307.276,139 L307.276,132.994 Z M307.913,129.848 C308.173001,129.848 308.393999,129.938999 308.576,130.121 C308.758001,130.303001 308.849,130.523999 308.849,130.784 C308.849,131.044001 308.758001,131.264999 308.576,131.447 C308.393999,131.629001 308.173001,131.72 307.913,131.72 C307.652999,131.72 307.432001,131.629001 307.25,131.447 C307.067999,131.264999 306.977,131.044001 306.977,130.784 C306.977,130.523999 307.067999,130.303001 307.25,130.121 C307.432001,129.938999 307.652999,129.848 307.913,129.848 Z M312.307,139.195 C311.665663,139.195 311.139169,138.984835 310.7275,138.5645 C310.315831,138.144165 310.11,137.500671 310.11,136.634 L310.11,132.994 L311.41,132.994 L311.41,136.504 C311.41,136.989336 311.520499,137.353332 311.7415,137.596 C311.962501,137.838668 312.272331,137.96 312.671,137.96 C313.139002,137.96 313.507332,137.793168 313.776,137.4595 C314.044668,137.125832 314.179,136.595004 314.179,135.867 L314.179,132.994 L315.453,132.994 L315.453,139 L314.179,139 L314.179,138.09 L314.153,138.09 C313.988333,138.419335 313.754335,138.685832 313.451,138.8895 C313.147665,139.093168 312.766336,139.195 312.307,139.195 Z M317.013,132.994 L318.287,132.994 L318.287,133.93 L318.313,133.93 C318.477667,133.539998 318.718165,133.254001 319.0345,133.072 C319.350835,132.889999 319.712665,132.799 320.12,132.799 C320.995338,132.799 321.601998,133.206329 321.94,134.021 L321.966,134.021 C322.139334,133.613665 322.394998,133.308168 322.733,133.1045 C323.071002,132.900832 323.443665,132.799 323.851,132.799 C324.45767,132.799 324.951665,133.002665 325.333,133.41 C325.714335,133.817335 325.905,134.441329 325.905,135.282 L325.905,139 L324.631,139 L324.631,135.347 C324.631,134.930998 324.529168,134.614668 324.3255,134.398 C324.121832,134.181332 323.829335,134.073 323.448,134.073 C323.031998,134.073 322.702668,134.218165 322.46,134.5085 C322.217332,134.798835 322.096,135.255997 322.096,135.88 L322.096,139 L320.822,139 L320.822,135.347 C320.822,134.930998 320.720168,134.614668 320.5165,134.398 C320.312832,134.181332 320.016002,134.073 319.626,134.073 C319.218665,134.073 318.893668,134.220332 318.651,134.515 C318.408332,134.809668 318.287,135.268997 318.287,135.893 L318.287,139 L317.013,139 L317.013,132.994 Z M338.476,135.49 C338.476,136.235337 338.326501,136.887497 338.0275,137.4465 C337.728499,138.005503 337.303836,138.436665 336.7535,138.74 C336.203164,139.043335 335.55967,139.195 334.823,139.195 C334.08633,139.195 333.442836,139.043335 332.8925,138.74 C332.342164,138.436665 331.917501,138.005503 331.6185,137.4465 C331.319499,136.887497 331.17,136.235337 331.17,135.49 L331.17,129.9 L332.587,129.9 L332.587,135.451 C332.587,136.170337 332.797165,136.740165 333.2175,137.1605 C333.637835,137.580835 334.172997,137.791 334.823,137.791 C335.473003,137.791 336.008165,137.580835 336.4285,137.1605 C336.848835,136.740165 337.059,136.170337 337.059,135.451 L337.059,129.9 L338.476,129.9 L338.476,135.49 Z M341.895,139.195 C341.470331,139.195 341.043502,139.138667 340.6145,139.026 C340.185498,138.913333 339.797668,138.757334 339.451,138.558 L340.023,137.427 C340.68167,137.808335 341.318664,137.999 341.934,137.999 C342.558003,137.999 342.87,137.812669 342.87,137.44 C342.87,137.309999 342.8245,137.195167 342.7335,137.0955 C342.6425,136.995833 342.475668,136.885334 342.233,136.764 L341.141,136.231 C340.300329,135.832331 339.88,135.256004 339.88,134.502 C339.88,133.955997 340.068498,133.535668 340.4455,133.241 C340.822502,132.946332 341.344663,132.799 342.012,132.799 C342.350002,132.799 342.698832,132.840166 343.0585,132.9225 C343.418168,133.004834 343.762665,133.119666 344.092,133.267 L343.572,134.372 C342.96533,134.111999 342.432336,133.982 341.973,133.982 C341.478998,133.982 341.232,134.133665 341.232,134.437 C341.232,134.584334 341.281833,134.709999 341.3815,134.814 C341.481167,134.918001 341.660999,135.030666 341.921,135.152 L343.039,135.685 C343.437669,135.867001 343.736666,136.094499 343.936,136.3675 C344.135334,136.640501 344.235,136.976331 344.235,137.375 C344.235,137.973003 344.024835,138.425832 343.6045,138.7335 C343.184165,139.041168 342.614337,139.195 341.895,139.195 Z M347.953,132.799 C348.854338,132.799 349.558497,133.087164 350.0655,133.6635 C350.572503,134.239836 350.826,135.017662 350.826,135.997 L350.826,136.205 L346.172,136.205 C346.198,136.733669 346.377832,137.160498 346.7115,137.4855 C347.045168,137.810502 347.471997,137.973 347.992,137.973 C348.425336,137.973 348.787165,137.871168 349.0775,137.6675 C349.367835,137.463832 349.621332,137.214668 349.838,136.92 L350.735,137.765 C350.041663,138.718338 349.136006,139.195 348.018,139.195 C347.38533,139.195 346.832836,139.062835 346.3605,138.7985 C345.888164,138.534165 345.524168,138.161502 345.2685,137.6805 C345.012832,137.199498 344.885,136.64267 344.885,136.01 C344.885,135.40333 345.008499,134.855169 345.2555,134.3655 C345.502501,133.875831 345.857831,133.492335 346.3215,133.215 C346.785169,132.937665 347.328997,132.799 347.953,132.799 Z M347.875,133.969 C347.432998,133.969 347.069001,134.081666 346.783,134.307 C346.496999,134.532334 346.315,134.857331 346.237,135.282 L349.448,135.282 C349.422,134.865998 349.268168,134.543168 348.9865,134.3135 C348.704832,134.083832 348.334336,133.969 347.875,133.969 Z M355.376,134.307 L355.181,134.307 C354.54833,134.307 354.071668,134.469498 353.751,134.7945 C353.430332,135.119502 353.27,135.632996 353.27,136.335 L353.27,139 L351.996,139 L351.996,132.994 L353.27,132.994 L353.27,134.307 L353.296,134.307 C353.443334,133.847664 353.688165,133.483668 354.0305,133.215 C354.372835,132.946332 354.790998,132.812 355.285,132.812 L355.376,132.812 L355.376,134.307 Z" id="Premium-User" fill="#647A93"></path>
                    <rect id="Rectangle-10" fill="#193FCC" x="385" y="121" width="108" height="28" rx="2"></rect>
                    <path d="M410.598,133.582 L410.598,134.17 C410.598,135.047338 410.413669,135.868663 410.045,136.634 C409.676331,137.399337 409.121004,138.019998 408.379,138.496 C407.636996,138.972002 406.734005,139.21 405.67,139.21 C404.689995,139.21 403.805671,139.000002 403.017,138.58 C402.228329,138.159998 401.610002,137.565004 401.162,136.795 C400.713998,136.024996 400.49,135.136005 400.49,134.128 C400.49,133.129328 400.706998,132.242671 401.141,131.468 C401.575002,130.693329 402.186329,130.086669 402.975,129.648 C403.763671,129.209331 404.666662,128.99 405.684,128.99 C406.468004,128.99 407.174997,129.111332 407.805,129.354 C408.435003,129.596668 408.983331,129.913998 409.45,130.306 L408.456,131.524 C408.110665,131.215998 407.695336,130.964001 407.21,130.768 C406.724664,130.571999 406.19267,130.474 405.614,130.474 C404.913996,130.474 404.298003,130.632665 403.766,130.95 C403.233997,131.267335 402.821001,131.701331 402.527,132.252 C402.232999,132.802669 402.086,133.42333 402.086,134.114 C402.086,134.814004 402.237665,135.436997 402.541,135.983 C402.844335,136.529003 403.268997,136.955998 403.815,137.264 C404.361003,137.572002 404.99333,137.726 405.712,137.726 C406.384003,137.726 406.964998,137.590668 407.455,137.32 C407.945002,137.049332 408.320665,136.701669 408.582,136.277 C408.843335,135.852331 408.992666,135.411336 409.03,134.954 L405.95,134.954 L405.95,133.582 L410.598,133.582 Z M411.858,132.532 L413.23,132.532 L413.23,139 L411.858,139 L411.858,132.532 Z M412.544,129.144 C412.824001,129.144 413.061999,129.241999 413.258,129.438 C413.454001,129.634001 413.552,129.871999 413.552,130.152 C413.552,130.432001 413.454001,130.669999 413.258,130.866 C413.061999,131.062001 412.824001,131.16 412.544,131.16 C412.263999,131.16 412.026001,131.062001 411.83,130.866 C411.633999,130.669999 411.536,130.432001 411.536,130.152 C411.536,129.871999 411.633999,129.634001 411.83,129.438 C412.026001,129.241999 412.263999,129.144 412.544,129.144 Z M420.692,132.532 L418.088,139 L416.8,139 L414.21,132.532 L415.82,132.532 L417.444,137.362 L419.082,132.532 L420.692,132.532 Z M424.486,132.322 C425.456672,132.322 426.214997,132.63233 426.761,133.253 C427.307003,133.87367 427.58,134.711328 427.58,135.766 L427.58,135.99 L422.568,135.99 C422.596,136.559336 422.789665,137.018998 423.149,137.369 C423.508335,137.719002 423.967997,137.894 424.528,137.894 C424.994669,137.894 425.384332,137.784334 425.697,137.565 C426.009668,137.345666 426.282666,137.077335 426.516,136.76 L427.482,137.67 C426.73533,138.696672 425.760006,139.21 424.556,139.21 C423.874663,139.21 423.279669,139.067668 422.771,138.783 C422.262331,138.498332 421.870335,138.097003 421.595,137.579 C421.319665,137.060997 421.182,136.461337 421.182,135.78 C421.182,135.126663 421.314999,134.536336 421.581,134.009 C421.847001,133.481664 422.229664,133.068668 422.729,132.77 C423.228336,132.471332 423.813997,132.322 424.486,132.322 Z M424.402,133.582 C423.925998,133.582 423.534002,133.703332 423.226,133.946 C422.917998,134.188668 422.722,134.538664 422.638,134.996 L426.096,134.996 C426.068,134.547998 425.902335,134.200335 425.599,133.953 C425.295665,133.705665 424.896669,133.582 424.402,133.582 Z M435.63,139.21 C435.05133,139.21 434.524002,139.070001 434.048,138.79 C433.571998,138.509999 433.191668,138.111003 432.907,137.593 C432.622332,137.074997 432.48,136.466003 432.48,135.766 C432.48,135.065997 432.622332,134.457003 432.907,133.939 C433.191668,133.420997 433.571998,133.022001 434.048,132.742 C434.524002,132.461999 435.05133,132.322 435.63,132.322 C436.143336,132.322 436.581998,132.424666 436.946,132.63 C437.310002,132.835334 437.599332,133.119998 437.814,133.484 L437.842,133.484 L437.842,129.2 L439.214,129.2 L439.214,139 L437.842,139 L437.842,138.048 L437.814,138.048 C437.599332,138.412002 437.310002,138.696666 436.946,138.902 C436.581998,139.107334 436.143336,139.21 435.63,139.21 Z M435.924,137.866 C436.521336,137.866 437.001998,137.672335 437.366,137.285 C437.730002,136.897665 437.912,136.391336 437.912,135.766 C437.912,135.140664 437.730002,134.634335 437.366,134.247 C437.001998,133.859665 436.521336,133.666 435.924,133.666 C435.326664,133.666 434.846002,133.859665 434.482,134.247 C434.117998,134.634335 433.936,135.140664 433.936,135.766 C433.936,136.391336 434.117998,136.897665 434.482,137.285 C434.846002,137.672335 435.326664,137.866 435.924,137.866 Z M441.034,132.532 L442.406,132.532 L442.406,139 L441.034,139 L441.034,132.532 Z M441.72,129.144 C442.000001,129.144 442.237999,129.241999 442.434,129.438 C442.630001,129.634001 442.728,129.871999 442.728,130.152 C442.728,130.432001 442.630001,130.669999 442.434,130.866 C442.237999,131.062001 442.000001,131.16 441.72,131.16 C441.439999,131.16 441.202001,131.062001 441.006,130.866 C440.809999,130.669999 440.712,130.432001 440.712,130.152 C440.712,129.871999 440.809999,129.634001 441.006,129.438 C441.202001,129.241999 441.439999,129.144 441.72,129.144 Z M446.158,139.21 C445.700664,139.21 445.241002,139.149334 444.779,139.028 C444.316998,138.906666 443.899335,138.738668 443.526,138.524 L444.142,137.306 C444.851337,137.716669 445.53733,137.922 446.2,137.922 C446.872003,137.922 447.208,137.721335 447.208,137.32 C447.208,137.179999 447.159,137.056334 447.061,136.949 C446.963,136.841666 446.783335,136.722667 446.522,136.592 L445.346,136.018 C444.440662,135.588665 443.988,134.968004 443.988,134.156 C443.988,133.567997 444.190998,133.115335 444.597,132.798 C445.003002,132.480665 445.56533,132.322 446.284,132.322 C446.648002,132.322 447.023665,132.366333 447.411,132.455 C447.798335,132.543667 448.169332,132.667333 448.524,132.826 L447.964,134.016 C447.310663,133.735999 446.736669,133.596 446.242,133.596 C445.709997,133.596 445.444,133.759332 445.444,134.086 C445.444,134.244667 445.497666,134.379999 445.605,134.492 C445.712334,134.604001 445.905999,134.725333 446.186,134.856 L447.39,135.43 C447.819335,135.626001 448.141332,135.870999 448.356,136.165 C448.570668,136.459001 448.678,136.820665 448.678,137.25 C448.678,137.894003 448.451669,138.381665 447.999,138.713 C447.546331,139.044335 446.932671,139.21 446.158,139.21 Z M452.934,139.21 C452.24333,139.21 451.629669,139.065335 451.093,138.776 C450.556331,138.486665 450.136335,138.080669 449.833,137.558 C449.529665,137.035331 449.378,136.438003 449.378,135.766 C449.378,135.093997 449.529665,134.496669 449.833,133.974 C450.136335,133.451331 450.556331,133.045335 451.093,132.756 C451.629669,132.466665 452.24333,132.322 452.934,132.322 C453.746004,132.322 454.48333,132.541331 455.146,132.98 L454.502,134.142 C453.979331,133.815332 453.442669,133.652 452.892,133.652 C452.275997,133.652 451.779002,133.850331 451.401,134.247 C451.022998,134.643669 450.834,135.149997 450.834,135.766 C450.834,136.382003 451.022998,136.888331 451.401,137.285 C451.779002,137.681669 452.275997,137.88 452.892,137.88 C453.442669,137.88 453.979331,137.716668 454.502,137.39 L455.146,138.552 C454.48333,138.990669 453.746004,139.21 452.934,139.21 Z M459.388,132.322 C460.060003,132.322 460.664331,132.471332 461.201,132.77 C461.737669,133.068668 462.159998,133.479331 462.468,134.002 C462.776002,134.524669 462.93,135.112663 462.93,135.766 C462.93,136.419337 462.776002,137.007331 462.468,137.53 C462.159998,138.052669 461.737669,138.463332 461.201,138.762 C460.664331,139.060668 460.060003,139.21 459.388,139.21 C458.715997,139.21 458.111669,139.060668 457.575,138.762 C457.038331,138.463332 456.616002,138.052669 456.308,137.53 C455.999998,137.007331 455.846,136.419337 455.846,135.766 C455.846,135.112663 455.999998,134.524669 456.308,134.002 C456.616002,133.479331 457.038331,133.068668 457.575,132.77 C458.111669,132.471332 458.715997,132.322 459.388,132.322 Z M459.388,133.666 C458.771997,133.666 458.270335,133.857331 457.883,134.24 C457.495665,134.622669 457.302,135.13133 457.302,135.766 C457.302,136.40067 457.495665,136.909331 457.883,137.292 C458.270335,137.674669 458.771997,137.866 459.388,137.866 C460.004003,137.866 460.505665,137.674669 460.893,137.292 C461.280335,136.909331 461.474,136.40067 461.474,135.766 C461.474,135.13133 461.280335,134.622669 460.893,134.24 C460.505665,133.857331 460.004003,133.666 459.388,133.666 Z M466.486,139.21 C465.79533,139.21 465.228336,138.983669 464.785,138.531 C464.341664,138.078331 464.12,137.385338 464.12,136.452 L464.12,132.532 L465.52,132.532 L465.52,136.312 C465.52,136.834669 465.638999,137.226665 465.877,137.488 C466.115001,137.749335 466.448665,137.88 466.878,137.88 C467.382003,137.88 467.778665,137.700335 468.068,137.341 C468.357335,136.981665 468.502,136.410004 468.502,135.626 L468.502,132.532 L469.874,132.532 L469.874,139 L468.502,139 L468.502,138.02 L468.474,138.02 C468.296666,138.374668 468.044668,138.661666 467.718,138.881 C467.391332,139.100334 466.980669,139.21 466.486,139.21 Z M475.068,132.322 C475.81467,132.322 476.407331,132.538998 476.846,132.973 C477.284669,133.407002 477.504,134.090662 477.504,135.024 L477.504,139 L476.132,139 L476.132,135.262 C476.132,134.216661 475.637338,133.694 474.648,133.694 C474.115997,133.694 473.696002,133.871332 473.388,134.226 C473.079998,134.580668 472.926,135.140663 472.926,135.906 L472.926,139 L471.554,139 L471.554,132.532 L472.926,132.532 L472.926,133.512 L472.954,133.512 C473.402002,132.718663 474.106662,132.322 475.068,132.322 Z M481.004,133.694 L481.004,137.082 C481.004,137.315335 481.057666,137.485666 481.165,137.593 C481.272334,137.700334 481.442665,137.754 481.676,137.754 L482.012,137.754 L482.012,139.014 L481.382,139.014 C480.812664,139.014 480.378668,138.869335 480.08,138.58 C479.781332,138.290665 479.632,137.880003 479.632,137.348 L479.632,133.694 L478.484,133.694 L478.484,132.532 L479.632,132.532 L479.632,129.942 L481.004,129.942 L481.004,132.532 L482.32,132.532 L482.32,133.694 L481.004,133.694 Z" id="Give-discount" fill="#FFFFFF"></path>
                </g>
            </g>
        </g>
    </g>
</svg>